<svg id="Capa_1" data-name="Capa 1" xmlns="http://www.w3.org/2000/svg" xmlns:xlink="http://www.w3.org/1999/xlink" viewBox="0 0 365.61 151.59"><defs><style>.cls-1{fill:url(#Degradado_sin_nombre);}.cls-2{fill:url(#Degradado_sin_nombre_2);}.cls-3{fill:url(#Degradado_sin_nombre_3);}.cls-4{fill:url(#Degradado_sin_nombre_4);}</style><linearGradient id="Degradado_sin_nombre" x1="4.05" y1="1632.83" x2="369.66" y2="1632.83" gradientTransform="matrix(1, 0, 0, -1, 0, 1738)" gradientUnits="userSpaceOnUse"><stop offset="0" stop-color="#ed4264"/><stop offset="1" stop-color="#ffedbc"/></linearGradient><linearGradient id="Degradado_sin_nombre_2" x1="4.05" y1="1630.78" x2="369.66" y2="1630.78" xlink:href="#Degradado_sin_nombre"/><linearGradient id="Degradado_sin_nombre_3" x1="4.05" y1="1657.17" x2="369.66" y2="1657.17" xlink:href="#Degradado_sin_nombre"/><linearGradient id="Degradado_sin_nombre_4" x1="4.05" y1="1648.42" x2="369.66" y2="1648.42" xlink:href="#Degradado_sin_nombre"/></defs><path class="cls-1" d="M144.15,96a50.51,50.51,0,0,0-3.23-16.55,41.29,41.29,0,0,0-7.83-12.71,34.83,34.83,0,0,0-12.28-8.88,40,40,0,0,0-16.54-3.22A36,36,0,0,0,94.6,56a36.56,36.56,0,0,0-8.88,3.75,37.32,37.32,0,0,0-7.57,5.75,36.79,36.79,0,0,0-3.57,3.91c-1.66-2.52-1.22-1.56-3-3.65a33,33,0,0,0-6.88-5.92,31.14,31.14,0,0,0-8.88-3.75,43.11,43.11,0,0,0-11.15-1.3,26.18,26.18,0,0,0-8.27,1.39,33.55,33.55,0,0,0-7,3.48,36,36,0,0,0-5.22,4.53A10.46,10.46,0,0,0,21.55,60a9.72,9.72,0,0,0-7.23-3A9.92,9.92,0,0,0,7,60a9.72,9.72,0,0,0-3,7.23v78.1a9.75,9.75,0,0,0,3,7.23,9.72,9.72,0,0,0,7.23,3,9.72,9.72,0,0,0,7.22-3,9.72,9.72,0,0,0,3-7.23V96.55a23.4,23.4,0,0,1,1.66-8.36,21,21,0,0,1,4.35-6.79,22,22,0,0,1,6.44-4.53,17.8,17.8,0,0,1,7.58-1.65,18.48,18.48,0,0,1,7.23,1.3,20,20,0,0,1,5.74,3.66,18.91,18.91,0,0,1,4.18,5.49A22.34,22.34,0,0,1,64,92V145.4a10.22,10.22,0,0,0,17.42,7.22,9.72,9.72,0,0,0,3-7.22V92l-.09.52a21.69,21.69,0,0,1,2.53-7,22.86,22.86,0,0,1,4.44-5.49A18.52,18.52,0,0,1,97,76.61a19.39,19.39,0,0,1,15.06.44,18.36,18.36,0,0,1,6,4.61A21.65,21.65,0,0,1,122,88.54a25.67,25.67,0,0,1,1.39,8.71v48.23a10.19,10.19,0,1,0,20.38,0v-49Z" transform="translate(-4.05 -6.08)"/><path class="cls-2" d="M215.46,153a37.34,37.34,0,0,0,5.74-4.7,10.24,10.24,0,0,0,20-3.05V67a10.19,10.19,0,1,0-20.38,0v48.41a21.07,21.07,0,0,1-1.74,8.44,22.47,22.47,0,0,1-4.79,7,22.73,22.73,0,0,1-7,4.7,21.79,21.79,0,0,1-8.62,1.74,20.52,20.52,0,0,1-8.36-1.65,22.28,22.28,0,0,1-6.79-4.62,22.6,22.6,0,0,1-4.61-7,20.37,20.37,0,0,1-1.66-8.36V67.21a10.19,10.19,0,1,0-20.37,0v48.41a41.78,41.78,0,0,0,12,29.51,42.72,42.72,0,0,0,13.24,9,40.4,40.4,0,0,0,16.11,3.57l.26-.26h.35A28.8,28.8,0,0,0,215.46,153Z" transform="translate(-4.05 -6.08)"/><path class="cls-3" d="M273.62,152.54a9.75,9.75,0,0,0,3-7.23V16.36A10.11,10.11,0,0,0,266.31,6.08a9.72,9.72,0,0,0-7.23,3,9.94,9.94,0,0,0-3,7.32v129a9.92,9.92,0,0,0,3,7.31,9.69,9.69,0,0,0,7.23,3l.08-.08a9.86,9.86,0,0,0,7.23-3Z" transform="translate(-4.05 -6.08)"/><path class="cls-4" d="M367.22,66.77a9.3,9.3,0,0,0-3.05-7.14,9.77,9.77,0,0,0-7-2.78H329.34V31.68a9.93,9.93,0,1,0-19.85,0V56.85H298.7a9.28,9.28,0,0,0-7.14,3,9.82,9.82,0,0,0-2.79,7,9.8,9.8,0,0,0,9.93,9.92h10.79v51.81a27.86,27.86,0,0,0,2.35,11.32,28.43,28.43,0,0,0,15.41,15.24,29.11,29.11,0,0,0,31.52-6.1,29.11,29.11,0,0,0,6.19-9.14,27.47,27.47,0,0,0,2.35-11.23l-.09-.26Zm-19.85,10.1v51.81a8.64,8.64,0,0,1-2.61,6.35A9,9,0,0,1,342,137,8.92,8.92,0,0,1,332,135a8.79,8.79,0,0,1-1.91-2.78,9.27,9.27,0,0,1-.7-3.57V76.87Zm15.06-26a10.68,10.68,0,0,0,3.92-2.7,13.27,13.27,0,0,0,2.44-3.83,12.93,12.93,0,0,0,.87-4.62,12.15,12.15,0,1,0-24.29,0,11,11,0,0,0,1,4.79,15,15,0,0,0,2.44,3.66,10.71,10.71,0,0,0,4,2.87,13.5,13.5,0,0,0,4.79.87l.26-.09a11.06,11.06,0,0,0,4.53-.95Z" transform="translate(-4.05 -6.08)"/></svg>